<svg width="790" height="625" xmlns="http://www.w3.org/2000/svg">
 <style>.st0{fill:#f7a902}.st1{fill:#353533}</style>

 <g>
  <title>background</title>
  <rect fill="none" id="canvas_background" height="627" width="792" y="-1" x="-1"/>
 </g>
 <g>
  <title>Layer 1</title>
  <path id="svg_1" d="m385.5,3.2c8.9,-4.6 19.7,-0.9 28.8,1.7c12.6,3.6 19.4,17.6 17.6,30c-0.6,17.9 -13.8,38.5 -33.8,36.8c-24.5,-0.1 -38.6,-29.7 -30.3,-50.8c4.1,-7.5 10.7,-13.2 17.7,-17.7zm-198.6,87.7c41.8,-2.8 83.7,-5.2 125.6,-3.4c17.4,0.7 35,5.7 49.1,16.3c20.3,14.6 30.9,40.2 30.6,64.9c1.6,36.7 -11.5,71.8 -24.5,105.4c-28,67.6 -64.4,131.5 -105.6,191.9c-28.2,40.5 -58.4,80.2 -95.3,113.3c-13.9,12.7 -30.4,21.8 -46.3,31.4c-11.8,6.8 -26.2,3.6 -36.4,-4.5c4.3,-37.9 7.7,-76.4 19.8,-112.8c4.1,-10.8 9.1,-24 21.3,-27.5c22.2,-6.2 47.4,-2.9 67.1,-16.6c16.6,-11.2 23.7,-31.2 26.5,-50.2c-35.6,4.1 -69.5,17 -101.9,31.7c-20.9,8.8 -45.4,6.4 -64.8,-5.1c-3,-8.2 -5.2,-17.2 -2.6,-25.8c3.7,-12.5 14.4,-21.3 25.4,-27.3c21.3,-11.3 45.4,-15.6 68.9,-19.2c25.8,-3.4 51.6,-7.3 77.6,-8.7c23.1,-0.4 46.7,-11.2 59.7,-30.8c19.4,-28.2 29.7,-62.7 30.1,-96.9c0.2,-11.5 -1.7,-25.2 -13.1,-31c-20,-11 -43.5,-12.8 -65.8,-13.9c-44.1,-1.2 -88.8,0.7 -131.6,12.4c-9.6,3.6 -22,8.1 -24.8,19c2.5,8.7 13.4,11.1 20.1,15.8c-9,11.2 -23.6,15.3 -37.6,15.7c-15.9,0.5 -32.3,-0.6 -47.3,-6.4c-11.1,-12.2 -12.9,-31.2 -6.3,-46.1c6.7,-15.5 19.6,-27.3 32.8,-37.3c32,-22.8 69.2,-36.6 106.2,-48.9c13.8,-5.1 28.7,-3.7 43.1,-5.4zm254.1,5.9c53.3,-7.1 107.1,-2.8 160.6,-1.2c27.3,2.2 55,2.2 81.4,10c31.8,9.2 63.6,22.9 86.8,47.1c11.6,13.1 21.9,30.1 19.7,48.3c-2.9,16.5 -20.7,23.4 -35.5,24.7c-23.8,1.6 -48.6,0.1 -70.7,-9.5c8.5,-2.3 17.1,-4.5 25.4,-7.6c-9.8,-10.7 -25.4,-10.9 -38.6,-14.4c-51,-8.8 -103.6,-10.5 -154.8,-1.9c-8.8,1.6 -17.9,7.4 -19.6,16.7c-3.2,18.2 4.6,35.5 11.1,52c17.1,42.6 27.7,88.1 50.9,128c15.7,27.8 38.9,50 59.8,73.8c7.6,7.6 13.7,16.7 22.4,23.2c11,-1.1 19,-9.9 28.7,-14.3c11.5,-3 21,6.1 27.9,14c15.9,19.7 23.6,45.5 22.3,70.7c-0.4,24.9 -10.6,48.6 -25.1,68.5c-43.2,-23.4 -80.8,-55.9 -113.9,-92c-85.6,-94 -138.5,-213.6 -168,-336.3c-5.9,-19.3 -5.9,-39.9 -3.8,-59.8c2.6,-17.7 13.5,-37.4 33,-40zm-70.4,234.1c11.7,-6.6 25.6,-12.7 39,-7.9c10.7,7.1 8.7,21.6 9.6,32.7c1.1,80.6 -3.6,161.2 -6.9,241.8c-10.8,5.6 -23.9,13.9 -36.3,7.9c-9.3,-6 -8.7,-18.4 -9.3,-28.1c-1.8,-22.1 -1.2,-44.3 -1.2,-66.4c2.2,-38.3 1.3,-76.7 2.8,-115c1.7,-21.6 1.4,-43.3 2.3,-65z" class="st0"/>
 </g>
</svg>